<?xml version="1.0" encoding="UTF-8" standalone="no"?>
<!DOCTYPE svg PUBLIC "-//W3C//DTD SVG 1.1//EN" "http://www.w3.org/Graphics/SVG/1.1/DTD/svg11.dtd">
<svg width="200px" height="200px" version="1.1" xmlns="http://www.w3.org/2000/svg" xmlns:xlink="http://www.w3.org/1999/xlink" xml:space="preserve" xmlns:serif="http://www.serif.com/" style="fill-rule:evenodd;clip-rule:evenodd;stroke-linejoin:round;stroke-miterlimit:2;">
    <path d="M135.25,85L52.75,85C45.161,85 39,78.839 39,71.25L39,43.75C39,36.161 45.161,30 52.75,30L135.25,30C142.839,30 149,36.161 149,43.75L149,71.25C149,78.839 142.839,85 135.25,85ZM134.25,32L53.75,32C51.351,32 49.106,32.664 47.189,33.818C48.393,34.372 49.23,35.589 49.23,37C49.23,38.932 47.662,40.5 45.73,40.5C44.361,40.5 43.175,39.712 42.6,38.566C41.581,40.398 41,42.507 41,44.75L41,70.25C41,72.493 41.581,74.602 42.6,76.434C43.175,75.288 44.361,74.5 45.73,74.5C47.662,74.5 49.23,76.068 49.23,78C49.23,79.411 48.393,80.629 47.189,81.182C49.106,82.336 51.351,83 53.75,83L134.25,83C136.673,83 138.939,82.323 140.868,81.147C139.703,80.579 138.9,79.383 138.9,78C138.9,76.068 140.468,74.5 142.4,74.5C143.72,74.5 144.871,75.233 145.467,76.313C146.445,74.509 147,72.444 147,70.25L147,44.75C147,42.556 146.445,40.491 145.467,38.687C144.871,39.767 143.72,40.5 142.4,40.5C140.468,40.5 138.9,38.932 138.9,37C138.9,35.617 139.703,34.421 140.868,33.853C138.939,32.677 136.673,32 134.25,32ZM45.73,76.5C46.558,76.5 47.23,77.172 47.23,78C47.23,78.828 46.558,79.5 45.73,79.5C44.902,79.5 44.23,78.828 44.23,78C44.23,77.172 44.902,76.5 45.73,76.5ZM142.4,76.5C143.228,76.5 143.9,77.172 143.9,78C143.9,78.828 143.228,79.5 142.4,79.5C141.572,79.5 140.9,78.828 140.9,78C140.9,77.172 141.572,76.5 142.4,76.5ZM45.73,35.5C46.558,35.5 47.23,36.172 47.23,37C47.23,37.828 46.558,38.5 45.73,38.5C44.902,38.5 44.23,37.828 44.23,37C44.23,36.172 44.902,35.5 45.73,35.5ZM142.4,35.5C143.228,35.5 143.9,36.172 143.9,37C143.9,37.828 143.228,38.5 142.4,38.5C141.572,38.5 140.9,37.828 140.9,37C140.9,36.172 141.572,35.5 142.4,35.5Z" style="fill:rgb(0,34,255);"/>
</svg>
