<?xml version="1.0" encoding="UTF-8" standalone="no"?><!DOCTYPE svg PUBLIC "-//W3C//DTD SVG 1.1//EN" "http://www.w3.org/Graphics/SVG/1.1/DTD/svg11.dtd"><svg width="200px" height="200px" version="1.1" xmlns="http://www.w3.org/2000/svg" xmlns:xlink="http://www.w3.org/1999/xlink" xml:space="preserve" xmlns:serif="http://www.serif.com/" style="fill-rule:evenodd;clip-rule:evenodd;stroke-linejoin:round;stroke-miterlimit:2;"><path d="M135.25,30C142.839,30 149,36.161 149,43.75L149,71.25C149,78.839 142.839,85 135.25,85L52.75,85C45.161,85 39,78.839 39,71.25L39,43.75C39,36.161 45.161,30 52.75,30L135.25,30ZM128.651,33.72L120.651,33.72C119.547,33.72 118.651,34.616 118.651,35.72L118.651,39.72C118.651,40.824 119.547,41.72 120.651,41.72L128.651,41.72C129.755,41.72 130.651,40.824 130.651,39.72L130.651,35.72C130.651,34.616 129.755,33.72 128.651,33.72Z" style="fill:rgb(0,34,255);"/></svg>