<?xml version="1.0" encoding="UTF-8" standalone="no"?><!DOCTYPE svg PUBLIC "-//W3C//DTD SVG 1.1//EN" "http://www.w3.org/Graphics/SVG/1.1/DTD/svg11.dtd"><svg width="200px" height="200px" version="1.1" xmlns="http://www.w3.org/2000/svg" xmlns:xlink="http://www.w3.org/1999/xlink" xml:space="preserve" xmlns:serif="http://www.serif.com/" style="fill-rule:evenodd;clip-rule:evenodd;stroke-linejoin:round;stroke-miterlimit:2;"><path d="M135.25,30C142.839,30 149,36.161 149,43.75L149,71.25C149,78.839 142.839,85 135.25,85L52.75,85C45.161,85 39,78.839 39,71.25L39,43.75C39,36.161 45.161,30 52.75,30L135.25,30ZM45.73,75.5C47.11,75.5 48.23,76.62 48.23,78C48.23,79.38 47.11,80.5 45.73,80.5C44.35,80.5 43.23,79.38 43.23,78C43.23,76.62 44.35,75.5 45.73,75.5ZM142.4,75.5C143.78,75.5 144.9,76.62 144.9,78C144.9,79.38 143.78,80.5 142.4,80.5C141.02,80.5 139.9,79.38 139.9,78C139.9,76.62 141.02,75.5 142.4,75.5ZM51,67C53.484,67 55.5,69.016 55.5,71.5C55.5,73.984 53.484,76 51,76C48.516,76 46.5,73.984 46.5,71.5C46.5,69.016 48.516,67 51,67ZM137,67.5C139.208,67.5 141,69.292 141,71.5C141,73.708 139.208,75.5 137,75.5C134.792,75.5 133,73.708 133,71.5C133,69.292 134.792,67.5 137,67.5ZM76,41.618C84.555,41.618 91.5,48.563 91.5,57.118C91.5,65.672 84.555,72.618 76,72.618C67.445,72.618 60.5,65.672 60.5,57.118C60.5,48.563 67.445,41.618 76,41.618ZM112,41.618C120.555,41.618 127.5,48.563 127.5,57.118C127.5,65.672 120.555,72.618 112,72.618C103.445,72.618 96.5,65.672 96.5,57.118C96.5,48.563 103.445,41.618 112,41.618ZM51,53C53.484,53 55.5,55.016 55.5,57.5C55.5,59.984 53.484,62 51,62C48.516,62 46.5,59.984 46.5,57.5C46.5,55.016 48.516,53 51,53ZM137,53.5C139.208,53.5 141,55.292 141,57.5C141,59.708 139.208,61.5 137,61.5C134.792,61.5 133,59.708 133,57.5C133,55.292 134.792,53.5 137,53.5ZM51,39C53.484,39 55.5,41.016 55.5,43.5C55.5,45.984 53.484,48 51,48C48.516,48 46.5,45.984 46.5,43.5C46.5,41.016 48.516,39 51,39ZM137,40.5C138.656,40.5 140,41.844 140,43.5C140,45.156 138.656,46.5 137,46.5C135.344,46.5 134,45.156 134,43.5C134,41.844 135.344,40.5 137,40.5ZM45.73,34.5C47.11,34.5 48.23,35.62 48.23,37C48.23,38.38 47.11,39.5 45.73,39.5C44.35,39.5 43.23,38.38 43.23,37C43.23,35.62 44.35,34.5 45.73,34.5ZM142.4,34.5C143.78,34.5 144.9,35.62 144.9,37C144.9,38.38 143.78,39.5 142.4,39.5C141.02,39.5 139.9,38.38 139.9,37C139.9,35.62 141.02,34.5 142.4,34.5Z" style="fill:rgb(0,34,255);"/></svg>